<svg width="20" height="19" viewBox="0 0 20 19" fill="none" xmlns="http://www.w3.org/2000/svg">
<path d="M12.2422 1.03513C13.2578 1.23826 13.918 2.22654 13.7148 3.24216L13.625 3.68748C13.418 4.73044 13.0352 5.72263 12.5 6.62498H18.125C19.1602 6.62498 20 7.46482 20 8.49998C20 9.48826 19.2383 10.2969 18.2695 10.3711C18.5703 10.7031 18.75 11.1445 18.75 11.625C18.75 12.539 18.0938 13.3008 17.2305 13.4648C17.4023 13.7461 17.5 14.082 17.5 14.4375C17.5 15.2695 16.957 15.9765 16.207 16.2187C16.2344 16.3476 16.25 16.4844 16.25 16.625C16.25 17.6601 15.4102 18.5 14.375 18.5H11.5039C10.7617 18.5 10.0391 18.2812 9.42188 17.8711L7.91797 16.8672C6.875 16.1719 6.25 15 6.25 13.7461V12.25V10.375V9.40232C6.25 8.26169 6.76953 7.18748 7.65625 6.47263L7.94531 6.24216C8.98047 5.41404 9.6875 4.24998 9.94531 2.9531L10.0352 2.50779C10.2383 1.49216 11.2266 0.832007 12.2422 1.03513ZM1.25 7.24998H3.75C4.44141 7.24998 5 7.80857 5 8.49998V17.25C5 17.9414 4.44141 18.5 3.75 18.5H1.25C0.558594 18.5 0 17.9414 0 17.25V8.49998C0 7.80857 0.558594 7.24998 1.25 7.24998Z" fill="#1A73E7"/>
</svg>
