<svg width="20" height="18" viewBox="0 0 20 18" fill="none" xmlns="http://www.w3.org/2000/svg">
<path d="M3.75 6.4648H1.25C0.559766 6.4648 0 7.02456 0 7.67964V16.3945C0 17.0847 0.559766 17.6093 1.25 17.6093H3.75C4.44023 17.6093 5 17.0496 5 16.3945V7.7148C5 7.05855 4.44141 6.4648 3.75 6.4648ZM20 7.86714C20 6.42612 18.8262 5.25308 17.384 5.25308H13.4832C13.8555 4.27729 14.0625 3.43354 14.0625 2.93745C14.0625 1.61714 13.0391 0.250732 11.3258 0.250732C9.50508 0.250732 9.00703 1.51792 8.60664 2.53589C7.36992 5.68042 6.25 5.12925 6.25 6.18706C6.25 6.68862 6.65469 7.12417 7.18828 7.12417C7.39359 7.12417 7.60039 7.05694 7.77305 6.9187C10.7715 4.52144 10.0375 2.12573 11.3258 2.12573C11.9539 2.12573 12.1875 2.62378 12.1875 2.93784C12.1875 3.22706 11.8909 4.48276 11.1895 5.73433C11.1095 5.87675 11.0697 6.03456 11.0697 6.19214C11.0697 6.73589 11.5162 7.09448 12.0072 7.09448H17.3822C17.793 7.12886 18.125 7.46089 18.125 7.86714C18.125 8.2503 17.8216 8.57144 17.4348 8.598C16.9402 8.63156 16.5613 9.04331 16.5613 9.53315C16.5613 10.1375 17.0062 10.1562 17.0062 10.6625C17.0062 11.6535 15.6379 11.1445 15.6379 12.3089C15.6379 12.7472 15.8876 12.8179 15.8876 13.1781C15.8876 14.0632 14.7247 13.7156 14.7247 14.7656C14.7247 14.9419 14.768 14.9984 14.768 15.135C14.768 15.5432 14.4354 15.8752 14.027 15.8752H11.9751C10.9743 15.8752 9.98211 15.5445 9.18211 14.9451L7.75008 13.8705C7.58152 13.7437 7.38406 13.6826 7.18836 13.6826C6.64734 13.6826 6.24969 14.1271 6.24969 14.6216C6.24969 14.9063 6.37906 15.1849 6.62453 15.3689L8.05695 16.4439C9.17969 17.2851 10.5703 17.75 11.9766 17.75H14.0285C15.4086 17.75 16.5426 16.6761 16.6379 15.3203C17.332 14.8425 17.7641 14.0503 17.7641 13.1785C17.7641 13.0595 17.7555 12.9399 17.739 12.8221C18.4359 12.3475 18.8828 11.5495 18.8828 10.6628C18.8828 10.4553 18.8578 10.251 18.8095 10.0518C19.5273 9.55073 20 8.77339 20 7.86714Z" fill="#1A73E7"/>
</svg>
